Coordinates
version=1
nRows=6
nColumns=63
inDegrees=yes

Units are S.I. units (second, meters, Newtons, ...)
If the header above contains a line with 'inDegrees', this indicates whether rotational values are in degrees (yes) or radians (no).

endheader
time	pelvis_tilt	pelvis_list	pelvis_rotation	pelvis_tx	pelvis_ty	pelvis_tz	hip_flexion_r	hip_adduction_r	hip_rotation_r	knee_angle_r	knee_angle_r_beta	ankle_angle_r	subtalar_angle_r	mtp_angle_r	hip_flexion_l	hip_adduction_l	hip_rotation_l	knee_angle_l	knee_angle_l_beta	ankle_angle_l	subtalar_angle_l	mtp_angle_l	L5_S1_Flex_Ext	L5_S1_Lat_Bending	L5_S1_axial_rotation	L4_L5_Flex_Ext	L4_L5_Lat_Bending	L4_L5_axial_rotation	L3_L4_Flex_Ext	L3_L4_Lat_Bending	L3_L4_axial_rotation	L2_L3_Flex_Ext	L2_L3_Lat_Bending	L2_L3_axial_rotation	L1_L2_Flex_Ext	L1_L2_Lat_Bending	L1_L2_axial_rotation	L1_T12_Flex_Ext	L1_T12_Lat_Bending	L1_T12_axial_rotation	Abs_r3	Abs_r2	Abs_r1	Abs_t1	Abs_t2	neck_flexion	neck_bending	neck_rotation	arm_flex_r	arm_add_r	arm_rot_r	elbow_flex_r	pro_sup_r	wrist_flex_r	wrist_dev_r	arm_flex_l	arm_add_l	arm_rot_l	elbow_flex_l	pro_sup_l	wrist_flex_l	wrist_dev_l
      0.00800000	    -40.55392411	      2.68890755	     -1.11044356	     -0.15264607	      1.01092724	      0.04231074	     92.58968682	     -3.90324811	      4.42451230	     99.41239285	      1.73507357	      4.54071365	    -12.93639774	      0.00000000	     96.77174109	     -5.56274695	     -3.00054752	     65.89805847	      1.15013809	      5.91413908	    -15.00359340	      0.00000000	     -0.05321423	     -0.51668474	      0.31891170	     -0.09882414	     -0.68719070	      0.33884368	     -0.08742566	     -1.25626727	      0.33884368	     -0.06081854	     -1.25626727	      0.27904774	     -0.04941473	     -1.05362352	      0.25911576	     -0.03040661	     -0.80034466	      0.23918377	     -0.38010391	     -5.84484109	      1.77369120	      0.00000000	      0.00000000	     -0.00000000	      0.00000000	      0.00000001	     68.47911822	    -12.51389991	     27.57508007	     37.46946715	     58.66695625	      0.00000000	      4.97057982	     69.54641509	    -10.87014205	     27.58308429	     36.74540147	     62.81836922	      0.00000000	      4.97057982
      0.01700000	    -40.51788272	      1.88788297	     -0.79148357	     -0.15211451	      1.01051112	      0.03994897	     94.45102173	     -4.66799160	      3.33843442	    102.58852449	      1.79050753	      3.66603659	    -13.91919636	      0.00000000	     94.46568576	     -5.10319159	     -2.95058826	     62.25017129	      1.08647045	      4.00580924	    -15.59844940	      0.00000000	     -0.05256435	     -0.36179294	      0.24717256	     -0.09761726	     -0.48118460	      0.26262085	     -0.08635797	     -0.87966334	      0.26262085	     -0.06007580	     -0.87966334	      0.21627599	     -0.04881126	     -0.73776816	      0.20082771	     -0.03003527	     -0.56041726	      0.18537942	     -0.37546191	     -4.09267405	      1.37469964	      0.00000000	      0.00000000	     -0.00000000	      0.00000000	      0.00000001	     69.11543315	    -12.84295769	     29.25412192	     37.14017266	     58.81922434	      0.00000000	      4.97267544	     68.79878273	    -10.62850795	     25.96560810	     37.18058105	     62.59300653	      0.00000000	      4.97267544
      0.02500000	    -40.50161533	      1.67955274	     -0.84784391	     -0.15197849	      1.01047202	      0.03976853	     95.02459794	     -4.80302544	      3.08350920	    103.49996592	      1.80641518	      3.74781723	    -13.86126230	      0.00000000	     93.74145213	     -5.18377517	     -3.01652173	     61.22630266	      1.06860057	      3.94948477	    -15.58167080	      0.00000000	     -0.05409368	     -0.32691158	      0.25652903	     -0.10045736	     -0.43479241	      0.27256209	     -0.08887050	     -0.79485282	      0.27256209	     -0.06182366	     -0.79485282	      0.22446290	     -0.05023139	     -0.66663810	      0.20842983	     -0.03090913	     -0.50638604	      0.19239677	     -0.38638572	     -3.69808922	      1.42673749	      0.00000000	      0.00000000	     -0.00000000	      0.00000000	      0.00000001	     69.20136145	    -12.85554931	     29.37999205	     36.99822440	     58.65686165	      0.00000000	      4.97382593	     68.70584926	    -10.59596015	     25.83975066	     37.16427463	     62.37143157	      0.00000000	      4.97382593
      0.03300000	    -40.46104223	      1.46747778	     -0.96900361	     -0.15176332	      1.01027114	      0.03973811	     95.71485829	     -4.87925581	      2.87735776	    104.60207769	      1.82565066	      4.05444254	    -13.51776836	      0.00000000	     92.97229241	     -5.31085962	     -2.93274501	     60.29816598	      1.05240153	      4.16074984	    -15.14146809	      0.00000000	     -0.05532794	     -0.29304473	      0.27753761	     -0.10274952	     -0.38974949	      0.29488371	     -0.09089827	     -0.71250896	      0.29488371	     -0.06323430	     -0.71250896	      0.24284541	     -0.05137753	     -0.59757681	      0.22549931	     -0.03161439	     -0.45392629	      0.20815321	     -0.39520195	     -3.31498059	      1.54358092	      0.00000000	      0.00000000	     -0.00000000	      0.00000000	      0.00000001	     69.24330967	    -12.85526538	     29.43025925	     36.85861621	     58.48106918	      0.00000000	      4.97471607	     68.60813491	    -10.58605324	     25.79722072	     37.19772422	     62.13344980	      0.00000000	      4.97471607
      0.04200000	    -40.47934496	      1.19281521	     -1.00580091	     -0.15180574	      1.01024449	      0.03960179	     96.58048955	     -5.01732724	      2.62470494	    105.70879587	      1.84496654	      3.72192925	    -13.62624399	      0.00000000	     92.09530937	     -5.42961933	     -3.03897742	     58.96768295	      1.02918022	      3.47890616	    -15.07626488	      0.00000000	     -0.05389765	     -0.24865222	      0.28473934	     -0.10009333	     -0.33070745	      0.30253555	     -0.08854845	     -0.60457301	      0.30253555	     -0.06159962	     -0.60457301	      0.24914692	     -0.05004936	     -0.50705161	      0.23135071	     -0.03079712	     -0.38516229	      0.21355450	     -0.38498553	     -2.81280366	      1.58363478	      0.00000000	      0.00000000	     -0.00000000	      0.00000000	      0.00000001	     69.35457539	    -12.83863007	     29.50007041	     36.71496702	     58.48941552	      0.00000000	      4.97493826	     68.52293595	    -10.59682636	     25.77340618	     37.27627694	     62.14198707	      0.00000000	      4.97493826
      0.05000000	    -40.45254113	      0.92190558	     -1.02761891	     -0.15176293	      1.00999474	      0.03955944	     97.52439896	     -5.14103154	      2.38849813	    106.96470421	      1.86688627	      3.49452354	    -13.80302381	      0.00000000	     91.14617296	     -5.49182444	     -3.05510953	     57.72172120	      1.00743408	      3.02361334	    -15.13239696	      0.00000000	     -0.05405793	     -0.20742864	      0.28681495	     -0.10039097	     -0.27588009	      0.30474088	     -0.08881177	     -0.50434200	      0.30474088	     -0.06178280	     -0.50434200	      0.25096308	     -0.05019819	     -0.42298848	      0.23303715	     -0.03088870	     -0.32130696	      0.21511121	     -0.38613036	     -2.34647427	      1.59517871	      0.00000000	      0.00000000	     -0.00000000	      0.00000000	      0.00000001	     69.45905122	    -12.79747519	     29.58732866	     36.53341366	     58.50093246	      0.00000000	      4.97516431	     68.43779267	    -10.61322312	     25.76251450	     37.33971942	     62.15247352	      0.00000000	      4.97516431
